<svg width="25" height="25" viewBox="0 0 25 25" fill="none" xmlns="http://www.w3.org/2000/svg">
<circle cx="12.5" cy="12.5" r="12.25" stroke="#48AE4D" stroke-width="0.5"/>
<g clip-path="url(#clip0_1:108)">
<path d="M18.75 12.538C18.75 9.0644 15.9526 6.25 12.5 6.25C9.04738 6.25 6.25 9.0644 6.25 12.538C6.25 15.6765 8.53553 18.2779 11.5234 18.75V14.3557H9.93574V12.538H11.5234V11.1526C11.5234 9.57683 12.4559 8.70639 13.8841 8.70639C14.568 8.70639 15.2833 8.82911 15.2833 8.82911V10.3758H14.495C13.7188 10.3758 13.4766 10.8605 13.4766 11.3578V12.538H15.2099L14.9327 14.3557H13.4766V18.75C16.4645 18.2779 18.75 15.6765 18.75 12.538Z" fill="#48AE4D"/>
</g>
<defs>
<clipPath id="clip0_1:108">
<rect width="12.5" height="12.5" fill="white" transform="translate(6.25 6.25)"/>
</clipPath>
</defs>
</svg>
