<svg width="25" height="25" viewBox="0 0 25 25" fill="none" xmlns="http://www.w3.org/2000/svg">
<circle cx="12.5" cy="12.5" r="12.25" stroke="#48AE4D" stroke-width="0.5"/>
<g clip-path="url(#clip0_1:110)">
<path d="M17.8571 6.25H7.14007C6.649 6.25 6.25 6.65458 6.25 7.15123V17.8488C6.25 18.3454 6.649 18.75 7.14007 18.75H17.8571C18.3482 18.75 18.75 18.3454 18.75 17.8488V7.15123C18.75 6.65458 18.3482 6.25 17.8571 6.25ZM10.0279 16.9643H8.17522V10.9989H10.0307V16.9643H10.0279ZM9.10156 10.1842C8.50725 10.1842 8.02734 9.70145 8.02734 9.10993C8.02734 8.51842 8.50725 8.03571 9.10156 8.03571C9.69308 8.03571 10.1758 8.51842 10.1758 9.10993C10.1758 9.70424 9.69587 10.1842 9.10156 10.1842ZM16.9727 16.9643H15.12V14.0625C15.12 13.3705 15.106 12.4805 14.1574 12.4805C13.192 12.4805 13.0441 13.2338 13.0441 14.0123V16.9643H11.1914V10.9989H12.9688V11.8136H12.9939C13.2422 11.3449 13.8477 10.851 14.7489 10.851C16.6239 10.851 16.9727 12.0871 16.9727 13.6942V16.9643Z" fill="#48AE4D"/>
</g>
<defs>
<clipPath id="clip0_1:110">
<rect width="12.5" height="12.5" fill="white" transform="translate(6.25 6.25)"/>
</clipPath>
</defs>
</svg>
