<svg width="25" height="25" viewBox="0 0 25 25" fill="none" xmlns="http://www.w3.org/2000/svg">
<circle cx="12.5" cy="12.5" r="12.25" stroke="#48AE4D" stroke-width="0.5"/>
<g clip-path="url(#clip0_1:109)">
<path d="M12.5028 9.29516C10.7288 9.29516 9.29795 10.726 9.29795 12.5C9.29795 14.274 10.7288 15.7048 12.5028 15.7048C14.2767 15.7048 15.7076 14.274 15.7076 12.5C15.7076 10.726 14.2767 9.29516 12.5028 9.29516ZM12.5028 14.5836C11.3564 14.5836 10.4192 13.6492 10.4192 12.5C10.4192 11.3508 11.3536 10.4164 12.5028 10.4164C13.652 10.4164 14.5864 11.3508 14.5864 12.5C14.5864 13.6492 13.6492 14.5836 12.5028 14.5836ZM16.5862 9.16406C16.5862 9.57966 16.2515 9.91158 15.8387 9.91158C15.4231 9.91158 15.0912 9.57687 15.0912 9.16406C15.0912 8.75126 15.4259 8.41655 15.8387 8.41655C16.2515 8.41655 16.5862 8.75126 16.5862 9.16406ZM18.7089 9.92274C18.6614 8.9214 18.4327 8.03442 17.6992 7.30364C16.9684 6.57285 16.0814 6.34414 15.0801 6.29393C14.048 6.23536 10.9548 6.23536 9.92274 6.29393C8.92419 6.34135 8.03721 6.57007 7.30364 7.30085C6.57007 8.03163 6.34414 8.91861 6.29393 9.91995C6.23536 10.952 6.23536 14.0452 6.29393 15.0773C6.34135 16.0786 6.57007 16.9656 7.30364 17.6964C8.03721 18.4271 8.9214 18.6559 9.92274 18.7061C10.9548 18.7646 14.048 18.7646 15.0801 18.7061C16.0814 18.6587 16.9684 18.4299 17.6992 17.6964C18.4299 16.9656 18.6587 16.0786 18.7089 15.0773C18.7674 14.0452 18.7674 10.9548 18.7089 9.92274ZM17.3756 16.1846C17.158 16.7313 16.7369 17.1525 16.1874 17.3728C15.3646 17.6992 13.4121 17.6238 12.5028 17.6238C11.5935 17.6238 9.63824 17.6964 8.8182 17.3728C8.27151 17.1552 7.85033 16.7341 7.62998 16.1846C7.30364 15.3618 7.37895 13.4093 7.37895 12.5C7.37895 11.5907 7.30643 9.63545 7.62998 8.81541C7.84754 8.26872 8.26872 7.84754 8.8182 7.62719C9.64102 7.30085 11.5935 7.37616 12.5028 7.37616C13.4121 7.37616 15.3673 7.30364 16.1874 7.62719C16.7341 7.84475 17.1552 8.26593 17.3756 8.81541C17.7019 9.63824 17.6266 11.5907 17.6266 12.5C17.6266 13.4093 17.7019 15.3646 17.3756 16.1846Z" fill="#48AE4D"/>
</g>
<defs>
<clipPath id="clip0_1:109">
<rect width="12.5" height="12.5" fill="white" transform="translate(6.25 6.25)"/>
</clipPath>
</defs>
</svg>
